# xmcd
#
# Track frame offsets: 
#        150
#        11090
#        22495
#        34995
#        48475
#        65633
#        80313
#        93588
#        106860
#        119905
#        130980
#        141138
#        153473
#        164923
#        177463
#        190083
#        202988
#        221310
#        234600
#        248298
#
# Disc length: 3464 seconds
#
# Revision: 5
# Processed by: cddbd v1.5.2PL0 Copyright (c) Steve Scherf et al.
# Submitted via: ExactAudioCopy v1.0b1
#
DISCID=260d8614
DTITLE=Various Artist - Only Country 1970-1974
DYEAR=1995
DGENRE=Country
TTITLE0=Conway Twitty - Hello Darlin'
TTITLE1=Donna Fargo - The Happiest Girl In The Whole U.S.A.
TTITLE2=Mickey Gilley - City Lights
TTITLE3=Loretta Lynn - Coal Miner's Daughter
TTITLE4=Ray Price - For The Good Times
TTITLE5=Jeanne Pruett - Satin Sheets
TTITLE6=Billy Swan - I Can Help
TTITLE7=Charlie Rich - Behind Closed Doors
TTITLE8=Tanya Tucker - Delta Dawn
TTITLE9=Freddie Hart - Easy Loving
TTITLE10=Billy Crash Craddock - Rub It In
TTITLE11=Hank Williams Jr. - Eleven Roses
TTITLE12=Sammi Smith - Help Me Make It Through The Night
TTITLE13=T.G. Sheppard - Devil In The Bottle
TTITLE14=Lynn Anderson - Rose Garden
TTITLE15=Merle Haggard - The Fightin' Side Of Me
TTITLE16=Johnny Cash - Sunday Morning Coming Down
TTITLE17=George Jones And Tammy Wynette - We're Gonna Hold On
TTITLE18=Sonny James - Is It Wrong (For Loving You)
TTITLE19=Willie Nelson - Stay All Night (Stay A Little Longer)
EXTD=
EXTT0=CONWAY TWITTY
EXTT1=DONNA FARGO
EXTT2=MICKEY GILLEY
EXTT3=LORETTA LYNN
EXTT4=RAY PRICE
EXTT5=JEANNE PRUETT
EXTT6=BILLY SWAN
EXTT7=CHARLIE RICH
EXTT8=TAYNA TUCKER
EXTT9=FREDDIE HEART
EXTT10=BILLY "CRASH" CRADDOCK
EXTT11=HANK WILLIAMS JR
EXTT12=SAMMI SMITH
EXTT13=T. G. SHEPPARD
EXTT14=LYNN ANDERSON
EXTT15=MERLE HAGGARD
EXTT16=JOHNNEY CAS
EXTT17=GEORGE JONES and TAMMY WYNETTE
EXTT18=SONNY JAMES
EXTT19=WILLIE NELSON
PLAYORDER=
